<svg xmlns="http://www.w3.org/2000/svg" width="77.126" height="56" viewBox="0 0 77.126 56">
  <path id="img_01" d="M-.311-24.044A59.463,59.463,0,0,1-1.354-12.326,25.815,25.815,0,0,1-4.689-3.551a15.132,15.132,0,0,1-6.055,5.514,20.349,20.349,0,0,1-9.24,1.9q-6.818,0-11.178-3.335a19.277,19.277,0,0,1-6.427-9.576,47.952,47.952,0,0,1-2.068-15,53.077,53.077,0,0,1,1.882-15.108,18.463,18.463,0,0,1,6.2-9.631q4.322-3.353,11.587-3.353,6.818,0,11.159,3.335A19.438,19.438,0,0,1-2.4-39.189,48.325,48.325,0,0,1-.311-24.044Zm-24.7,0a85.293,85.293,0,0,0,.391,8.942,13.5,13.5,0,0,0,1.49,5.421,3.484,3.484,0,0,0,3.148,1.807,3.443,3.443,0,0,0,3.13-1.807,13.875,13.875,0,0,0,1.49-5.4,81.34,81.34,0,0,0,.41-8.961,82.289,82.289,0,0,0-.41-9.017,14.262,14.262,0,0,0-1.49-5.458,3.431,3.431,0,0,0-3.13-1.844,3.472,3.472,0,0,0-3.148,1.844,13.828,13.828,0,0,0-1.49,5.458A86.177,86.177,0,0,0-25.014-24.044ZM37.47,3.118H22.529V-26.559q0-1.993.056-4.415t.168-4.359q-.969,1.155-1.807,1.975t-1.621,1.528l-6.185,5.1L5.5-36.115l18.7-15.239H37.47Z" transform="translate(39.656 52.137)" fill="#e5e5e5"/>
</svg>
