<svg xmlns="http://www.w3.org/2000/svg" width="83.609" height="56" viewBox="0 0 83.609 56">
  <path id="img_03" d="M-.311-24.044A59.463,59.463,0,0,1-1.354-12.326,25.815,25.815,0,0,1-4.689-3.551a15.132,15.132,0,0,1-6.055,5.514,20.349,20.349,0,0,1-9.24,1.9q-6.818,0-11.178-3.335a19.277,19.277,0,0,1-6.427-9.576,47.952,47.952,0,0,1-2.068-15,53.077,53.077,0,0,1,1.882-15.108,18.463,18.463,0,0,1,6.2-9.631q4.322-3.353,11.587-3.353,6.818,0,11.159,3.335A19.438,19.438,0,0,1-2.4-39.189,48.325,48.325,0,0,1-.311-24.044Zm-24.7,0a85.293,85.293,0,0,0,.391,8.942,13.5,13.5,0,0,0,1.49,5.421,3.484,3.484,0,0,0,3.148,1.807,3.443,3.443,0,0,0,3.13-1.807,13.875,13.875,0,0,0,1.49-5.4,81.34,81.34,0,0,0,.41-8.961,82.289,82.289,0,0,0-.41-9.017,14.262,14.262,0,0,0-1.49-5.458,3.431,3.431,0,0,0-3.13-1.844,3.472,3.472,0,0,0-3.148,1.844,13.828,13.828,0,0,0-1.49,5.458A86.177,86.177,0,0,0-25.014-24.044Zm67.364-15.5a12.937,12.937,0,0,1-1.658,6.688,13.786,13.786,0,0,1-4.4,4.6,21.148,21.148,0,0,1-5.98,2.683v.224q6.52.82,10.079,3.968t3.558,8.923a14.809,14.809,0,0,1-2.385,8.178,16.292,16.292,0,0,1-7.415,5.924q-5.03,2.217-12.929,2.217a44.583,44.583,0,0,1-9.017-.782A44.882,44.882,0,0,1,4.98.92V-11.3a31.485,31.485,0,0,0,7.284,2.7,30.244,30.244,0,0,0,6.837.876q5.365,0,7.321-1.528a4.932,4.932,0,0,0,1.956-4.1,5.306,5.306,0,0,0-.931-3.167A6.126,6.126,0,0,0,24-18.529a28.117,28.117,0,0,0-7.21-.708H13.438V-30.3h3.428a23.461,23.461,0,0,0,6.613-.745A7.256,7.256,0,0,0,27-33.079a4.469,4.469,0,0,0,1.081-2.962,3.511,3.511,0,0,0-1.677-3.2,8.308,8.308,0,0,0-4.434-1.043,15.506,15.506,0,0,0-4.62.671,23.752,23.752,0,0,0-3.763,1.49q-1.6.82-2.422,1.341l-6.11-9.836a35.241,35.241,0,0,1,7.768-3.912,33.994,33.994,0,0,1,11.457-1.6q8.42,0,13.246,3.353A10.651,10.651,0,0,1,42.35-39.543Z" transform="translate(39.656 52.137)" fill="#e5e5e5"/>
</svg>
