<svg xmlns="http://www.w3.org/2000/svg" width="83.832" height="56" viewBox="0 0 83.832 56">
  <path id="img_02" d="M-.311-24.044A59.463,59.463,0,0,1-1.354-12.326,25.815,25.815,0,0,1-4.689-3.551a15.132,15.132,0,0,1-6.055,5.514,20.349,20.349,0,0,1-9.24,1.9q-6.818,0-11.178-3.335a19.277,19.277,0,0,1-6.427-9.576,47.952,47.952,0,0,1-2.068-15,53.077,53.077,0,0,1,1.882-15.108,18.463,18.463,0,0,1,6.2-9.631q4.322-3.353,11.587-3.353,6.818,0,11.159,3.335A19.438,19.438,0,0,1-2.4-39.189,48.325,48.325,0,0,1-.311-24.044Zm-24.7,0a85.293,85.293,0,0,0,.391,8.942,13.5,13.5,0,0,0,1.49,5.421,3.484,3.484,0,0,0,3.148,1.807,3.443,3.443,0,0,0,3.13-1.807,13.875,13.875,0,0,0,1.49-5.4,81.34,81.34,0,0,0,.41-8.961,82.289,82.289,0,0,0-.41-9.017,14.262,14.262,0,0,0-1.49-5.458,3.431,3.431,0,0,0-3.13-1.844,3.472,3.472,0,0,0-3.148,1.844,13.828,13.828,0,0,0-1.49,5.458A86.177,86.177,0,0,0-25.014-24.044ZM44.176,3.118H4.644V-6.569l13.3-13.45q4.136-4.322,6.427-6.93A23.155,23.155,0,0,0,27.6-31.384a8.259,8.259,0,0,0,.931-3.8,3.952,3.952,0,0,0-1.565-3.5,6.33,6.33,0,0,0-3.689-1.081,10.573,10.573,0,0,0-5.2,1.472,37.281,37.281,0,0,0-5.943,4.341L4.048-43.418A64.664,64.664,0,0,1,9.265-47.61a24.262,24.262,0,0,1,6.52-3.26,28.946,28.946,0,0,1,9.166-1.267A22.251,22.251,0,0,1,34.582-50.2,15.17,15.17,0,0,1,40.9-44.89a13.542,13.542,0,0,1,2.236,7.657A19.709,19.709,0,0,1,41.4-28.794a28.988,28.988,0,0,1-5.2,7.415q-3.465,3.707-8.644,8.4L23.572-9.4v.373h20.6Z" transform="translate(39.656 52.137)" fill="#e5e5e5"/>
</svg>
